<?xml version="1.0" encoding="UTF-8" standalone="no"?>
<svg
   width="50.4mm"
   height="54.4mm"
   inkscape:version="1.2.2 (732a01da63, 2022-12-09)"
   sodipodi:docname="EndeavourOS_Logo.svg"
   version="1.1"
   viewBox="0 0 50.4 54.4"
   id="svg27"
   xmlns:inkscape="http://www.inkscape.org/namespaces/inkscape"
   xmlns:sodipodi="http://sodipodi.sourceforge.net/DTD/sodipodi-0.dtd"
   xmlns="http://www.w3.org/2000/svg"
   xmlns:svg="http://www.w3.org/2000/svg"
   xmlns:rdf="http://www.w3.org/1999/02/22-rdf-syntax-ns#"
   xmlns:cc="http://creativecommons.org/ns#"
   xmlns:dc="http://purl.org/dc/elements/1.1/">
  <defs
     id="defs29" />
  <sodipodi:namedview
     id="cvfa"
     bordercolor="#666666"
     borderopacity="1.0"
     inkscape:current-layer="g25"
     inkscape:cx="-5.8812841"
     inkscape:cy="131.01067"
     inkscape:document-rotation="0"
     inkscape:document-units="mm"
     inkscape:pageopacity="0.0"
     inkscape:pageshadow="2"
     inkscape:window-height="829"
     inkscape:window-maximized="1"
     inkscape:window-width="1440"
     inkscape:window-x="-8"
     inkscape:window-y="-8"
     inkscape:zoom="2.465448"
     pagecolor="#ffffff"
     showgrid="false"
     inkscape:showpageshadow="2"
     inkscape:pagecheckerboard="0"
     inkscape:deskcolor="#d1d1d1" />
  <title
     id="title3">EndeavourOS Logo</title>
  <metadata
     id="metadata5">
    <rdf:RDF>
      <cc:Work
         rdf:about="">
        <dc:format>image/svg+xml</dc:format>
        <dc:type
           rdf:resource="http://purl.org/dc/dcmitype/StillImage" />
        <dc:title />
      </cc:Work>
    </rdf:RDF>
  </metadata>
  <g
     transform="translate(-66.5 -122)"
     inkscape:groupmode="layer"
     inkscape:label="Layer 1"
     id="g25">
    <g
       transform="translate(76.2 -12.7)"
       id="g23">
      <g
         transform="matrix(1.47 0 0 1.47 -519 105)"
         id="g21">
        <g
           transform="matrix(.963 0 0 .983 13.5 .76)"
           id="g19">
          <g
             transform="matrix(.678 0 0 .678 452 49.2)"
             id="g13">
            <path
               d="m -127,-42.3 c 4.57,6.45 23.8,31.4 10.7,36.6 -6.12,2.81 -34,-1.65 -33.6,-0.921 -2,3.28 -3.59,5.92 -3.59,5.92 0,0 21.5,0.967 38.1,-1.27 23.7,-3.18 -4.88,-33.5 -11.6,-40.3 z"
               style="display:inline;fill:#1c1e24;stroke-width:0.585;fill-opacity:1"
               inkscape:connector-curvature="0"
               id="path7" />
            <path
               d="m-127-42.3c-1.52 0.209-29.4 34.5-29.4 34.5s2.01 0.57 6.58 1.23c1.48-1.15 22.3-36.2 22.9-35.7-0.0107-0.0141-0.028-0.0193-0.0522-0.016z"
               style="fill:#cfe0f9;stroke-width:0.585;fill-opacity:1"
               inkscape:connector-curvature="0"
               id="path9" />
            <path
               d="m-127-42.3c-0.96-0.156-22.9 35.7-22.9 35.7s19.9 2.1 28.1 1.96c23.1-0.39 0.176-30.6-5.16-37.7-7e-3 -7e-3 -0.0151-0.0108-0.0248-0.0124z"
               style="fill:#4d638c;stroke-width:0.585;fill-opacity:1"
               inkscape:connector-curvature="0"
               id="path11" />
          </g>
        </g>
      </g>
    </g>
  </g>
</svg>
