<?xml version="1.0" encoding="UTF-8" standalone="no"?>
<!-- Generator: Adobe Illustrator 25.4.1, SVG Export Plug-In . SVG Version: 6.00 Build 0)  -->

<svg
   version="1.1"
   id="Layer_1"
   x="0px"
   y="0px"
   viewBox="0 0 256 256"
   style="enable-background:new 0 0 256 256;"
   xml:space="preserve"
   sodipodi:docname="Linux_Mint_logo_without_wordmark.svg"
   inkscape:version="1.2.2 (732a01da63, 2022-12-09)"
   xmlns:inkscape="http://www.inkscape.org/namespaces/inkscape"
   xmlns:sodipodi="http://sodipodi.sourceforge.net/DTD/sodipodi-0.dtd"
   xmlns="http://www.w3.org/2000/svg"
   xmlns:svg="http://www.w3.org/2000/svg"><defs
   id="defs14" /><sodipodi:namedview
   id="namedview12"
   pagecolor="#ffffff"
   bordercolor="#000000"
   borderopacity="0.25"
   inkscape:showpageshadow="2"
   inkscape:pageopacity="0.0"
   inkscape:pagecheckerboard="0"
   inkscape:deskcolor="#d1d1d1"
   showgrid="false"
   inkscape:zoom="1.3037281"
   inkscape:cx="81.688811"
   inkscape:cy="161.84356"
   inkscape:window-width="1440"
   inkscape:window-height="829"
   inkscape:window-x="-8"
   inkscape:window-y="-8"
   inkscape:window-maximized="1"
   inkscape:current-layer="Layer_1" />
<style
   type="text/css"
   id="style2">
	.st0{fill:#FFFFFF;}
	.st1{fill:#69B53F;}
	.st2{fill:#F8F8F8;}
</style>
<g
   id="g9">
	<circle
   class="st0"
   cx="128"
   cy="128"
   r="128"
   id="circle4"
   style="display:inline;fill:#283654;fill-opacity:1" />
	<circle
   class="st1"
   cx="128"
   cy="128"
   r="108"
   id="circle6"
   style="fill:#283654;fill-opacity:1" />
	<path
   id="_x3C_Path_x3E_"
   class="st2"
   d="m 58,63 v 90 c 0.1,22.1 17.9,39.9 40,40 h 60 c 22.1,-0.1 39.9,-17.9 40,-40 v -50 c -0.1,-16.5 -13.5,-29.9 -30,-30 -7.4,0 -14.5,2.8 -20,7.9 -5.5,-5 -12.6,-7.8 -20,-7.9 -16.5,0.1 -29.9,13.5 -30,30 v 50 h 20 v -50 c 0,-5.5 4.5,-10 10,-10 5.5,0 10,4.5 10,10 v 50 h 20 v -50 c 0,-5.5 4.5,-10 10,-10 5.5,0 10,4.5 10,10 v 50 c 0.1,11 -8.8,19.9 -19.7,20 -0.1,0 -0.2,0 -0.3,0 H 98 c -11,0.1 -19.9,-8.8 -20,-19.7 0,-0.1 0,-0.2 0,-0.3 V 63 Z"
   style="display:inline;fill:#cfe0f9;fill-opacity:1" />
</g>
</svg>
